<?xml version="1.0" encoding="UTF-8"?>
<svg width="90px" height="24px" viewBox="0 0 90 24" version="1.1" xmlns="http://www.w3.org/2000/svg" xmlns:xlink="http://www.w3.org/1999/xlink">
    <title>01_标准标识（中文）</title>
    <g id="页面-1" stroke="none" stroke-width="1" fill="none" fill-rule="evenodd">
        <g id="导航移动端" transform="translate(-56.000000, -16.000000)" fill="#FFFFFF" fill-rule="nonzero">
            <g id="01_标准标识（中文）" transform="translate(56.000000, 16.000000)">
                <path d="M65.7489558,5.472 L69.4725664,5.472 L69.4725664,10.6332743 L65.7489558,10.6332743 L65.7489558,5.472 L65.7489558,5.472 Z M71.0298053,4.05642478 L61.2463009,4.05642478 L61.2463009,5.472 L64.1917168,5.472 L64.1917168,10.6332743 L60.8162124,10.6332743 L60.8162124,12.0488496 L64.1917168,12.0488496 L64.1917168,20.704354 L65.7489558,20.704354 L65.7489558,12.0490619 L69.472354,12.0490619 L69.472354,20.5231858 L72.4130973,20.5231858 L72.4130973,19.1067611 L71.0295929,19.1067611 L71.0295929,4.05642478 L71.0298053,4.05642478 Z" id="形状"></path>
                <rect id="矩形" x="43.8909027" y="16.7458407" width="7.71865487" height="1.41557522"></rect>
                <path d="M42.0297345,8.86895575 L40.0470796,8.86895575 L40.0470796,5.50746903 L42.0297345,5.50746903 L42.0297345,8.86895575 Z M40.0470796,10.1430796 L42.0297345,10.1430796 L42.0297345,13.531115 L40.0470796,13.531115 L40.0470796,10.1430796 Z M38.6315044,14.1258053 C38.6315044,16.6999646 38.4233628,18.6541593 37.9949735,20.3855575 C37.9497345,20.5456991 37.9985841,20.5888142 38.0824779,20.5888142 L39.5018761,20.5888142 C39.9759292,18.2102655 40.0377345,16.2369558 40.0458053,14.8052389 L42.0297345,14.8052389 L42.0297345,19.2065841 L40.6207434,19.2065841 C40.552354,19.2065841 40.4990442,19.2513982 40.5353628,19.3493097 L40.9233982,20.6223717 L43.4425487,20.6223717 L43.4425487,4.09189381 L38.6315044,4.09189381 L38.6315044,14.1258053 Z" id="形状"></path>
                <path d="M50.4229381,9.83065487 C50.7621239,10.3886018 51.1272212,10.8751858 51.5042124,11.3027257 L46.8698761,11.3027257 C47.2296637,10.8877168 47.5779823,10.4032566 47.9025133,9.83065487 L50.4229381,9.83065487 Z M52.1560354,9.83065487 L54.056708,9.83065487 L54.056708,8.55653097 L48.5186549,8.55653097 C48.6858053,8.14938053 48.836177,7.71292035 48.9731681,7.24014159 L53.7094513,7.24014159 L53.7094513,5.9660177 L52.3221239,5.9660177 C52.5529912,5.17890265 52.8256991,4.24969912 52.8416283,4.1959646 C52.8690265,4.10166372 52.8195398,4.06534513 52.7585841,4.06534513 L51.5530619,4.06534513 L50.9944779,5.9660177 L49.2909027,5.9660177 C49.4495575,5.22923894 49.5882478,4.41345133 49.7139823,3.4980531 C49.7286372,3.39185841 49.6715044,3.37083186 49.6012035,3.37083186 L48.2293805,3.37083186 C48.0889912,4.34357522 47.9422301,5.1820885 47.7542655,5.9660177 L46.9187257,5.9660177 L46.3601416,4.06534513 L45.1548319,4.06534513 C45.0938761,4.06534513 45.044177,4.10187611 45.0717876,4.1959646 C45.0875044,4.24969912 45.3602124,5.17869027 45.5910796,5.9660177 L44.2398584,5.9660177 L44.2398584,7.24014159 L47.3953274,7.24014159 C47.2670442,7.64240708 47.0784425,8.11624779 46.8770973,8.55653097 L43.8928142,8.55653097 L43.8928142,9.83065487 L46.1343717,9.83065487 C45.2304425,11.1136991 44.264708,11.7041416 43.8792212,11.9401062 L43.8792212,13.3975221 C43.8792212,13.4710088 43.9372035,13.5489558 44.167646,13.4183363 C44.5866903,13.1806726 45.0337699,12.9117876 45.4867965,12.5772743 L50.7593628,12.5772743 L50.7149735,14.4851681 L46.552354,14.4851681 L46.615646,13.3444248 C46.615646,13.2951504 46.5799646,13.2581947 46.5294159,13.2581947 L45.1979469,13.2581947 L45.0639292,15.6732743 C45.0639292,15.7225487 45.0996106,15.7595044 45.1503717,15.7595044 L52.3323186,15.7595044 L52.3323186,19.2044602 L49.0950796,19.2044602 C49.0266903,19.2044602 48.9735929,19.2492743 49.0099115,19.3471858 L49.3977345,20.6202478 L53.8893451,20.6202478 L53.8893451,14.4847434 L52.1311858,14.4847434 L52.1891681,12.0072212 C52.8467257,12.6186903 53.5138407,13.0734159 54.1204248,13.4179115 C54.3508673,13.548531 54.4088496,13.4705841 54.4088496,13.3970973 L54.4088496,11.9396814 C54.0237876,11.7039292 53.0593274,11.112 52.1560354,9.83065487" id="形状"></path>
                <path d="M62.2334867,15.7614159 C62.2071504,15.7813805 60.8863009,16.7821593 59.6079292,17.7508673 L59.6079292,8.5480354 L55.9696991,8.5480354 L55.9696991,10.1050619 L58.0610973,10.1050619 L58.0610973,18.9228319 C57.5628319,19.3004602 57.2249204,19.5566018 57.2249204,19.5566018 L58.0793628,20.6854513 L62.3740885,17.4314336 L62.3740885,15.8281062 C62.3738761,15.7512212 62.2891327,15.7191504 62.2334867,15.7614159" id="路径"></path>
                <path d="M58.2664779,7.1539115 L59.968354,7.1539115 C60.0437522,7.1539115 60.0745487,7.0719292 60.0409912,7.02116814 C60.0101947,6.9740177 57.8943717,3.74272566 57.8943717,3.74272566 L56.1924956,3.74272566 C56.1279292,3.74272566 56.0816283,3.81727434 56.1170973,3.87143363 C56.1525664,3.92580531 58.2664779,7.1539115 58.2664779,7.1539115" id="路径"></path>
                <rect id="矩形" x="75.7053451" y="4.43426549" width="12.2894867" height="1.55723894"></rect>
                <path d="M80.1627611,11.8766018 L89.7255929,11.8766018 L89.7255929,10.3193628 L73.9745841,10.3193628 L73.9745841,11.8766018 L78.3444956,11.8766018 C77.4418407,14.2466549 75.1769204,20.1939823 75.1614159,20.2370973 C75.136354,20.3061239 75.1815929,20.3573097 75.2412743,20.3573097 L88.8271858,20.3573097 C88.8913274,20.3573097 88.9280708,20.2938053 88.9053451,20.2339115 C88.8909027,20.1963186 86.8795752,14.9082478 86.8795752,14.9082478 L85.1883186,14.9082478 C85.124177,14.9082478 85.0859469,14.9704779 85.1071858,15.0267611 C85.1286372,15.0830442 86.5406018,18.8000708 86.5406018,18.8000708 L77.5327434,18.8000708 L80.1627611,11.8766018 Z" id="路径"></path>
                <path d="M30.9657345,10.9138407 C29.5773451,9.49826549 27.6424779,8.60623009 25.4913982,8.6060177 C23.6319292,8.6060177 22.0311504,9.24700885 20.6334159,10.3852035 C20.0242832,10.8813451 19.3849912,11.4751858 18.5810973,12.2561416 C18.1818053,12.6439646 6.60339823,23.8787257 6.60339823,23.8787257 C7.21040708,23.9649558 8.04530973,23.9908673 8.78952212,23.9953274 C9.48679646,23.9997876 22.7898053,23.9985133 23.3466903,23.9985133 C24.467469,23.9985133 25.1968142,23.9972389 25.9803186,23.9401062 C27.7773451,23.8088496 29.4747611,23.1500177 30.8470088,21.8021947 C33.8941593,18.8102655 33.939823,13.9535575 30.9657345,10.9138407 M28.7403186,19.6494159 C28.1498761,20.2339115 27.0964248,20.8974159 25.3671504,20.9560354 C24.5677168,20.9832212 23.6338407,20.9861947 23.2067257,20.9861947 C22.7403186,20.9861947 18.628885,20.9861947 13.9159646,20.9861947 C17.296354,17.7030796 20.2449558,14.8390088 20.579469,14.5144779 C20.8859469,14.2164956 21.5751504,13.5574513 22.1696283,13.0220177 C23.4745487,11.8468673 24.6494867,11.6102655 25.4805664,11.6181239 C26.7825133,11.6304425 27.9665841,12.1618407 28.8129558,13.0203186 C30.6231504,14.8708673 30.5804602,17.8283894 28.7403186,19.6494159" id="形状"></path>
                <path d="M12.2854513,10.1915044 C10.9244602,9.17288496 9.40099115,8.60368142 7.67341593,8.60622157 C5.52233628,8.60622157 3.58746903,9.49826549 2.19907965,10.9140531 C-0.77500885,13.9535575 -0.729132743,18.8102655 2.3180177,21.8026195 C3.54159292,23.0038938 5.02364602,23.6576283 6.6040354,23.8785133 L9.58534513,20.9857699 C9.10322124,20.9838584 8.41168142,20.9770619 7.79766372,20.9562478 C6.06860177,20.8974159 5.01536283,20.2336991 4.42492035,19.6496283 C2.58477876,17.8286018 2.54187611,14.8710796 4.35249558,13.0207434 C5.19886726,12.1622655 6.38293805,11.6308673 7.68488496,11.6185487 C8.50046018,11.6153628 9.60785841,11.852177 10.8588319,12.8892743 C11.4560708,13.384354 12.7822301,14.5497345 13.3639646,15.0745487 C13.3934867,15.1010973 13.4291681,15.1034336 13.464,15.0749735 L15.516531,13.072354 C15.552,13.0379469 15.5496637,12.9914336 15.5148319,12.9595752 C14.5272212,12.067115 13.1277876,10.8186903 12.2854513,10.1915044" id="路径"></path>
                <path d="M26.2984779,6.86761062 C24.8822655,2.86683186 21.068177,0 16.5820885,0 C11.436531,0 7.17238938,3.78371681 6.40035398,8.71284956 C6.8140885,8.64297345 7.23929204,8.60623009 7.67341593,8.60623009 C8.27766372,8.60516814 8.85621239,8.67589381 9.41224779,8.80969912 C9.42329204,8.8120354 9.4339115,8.81309735 9.44474336,8.81585841 C10.1415929,5.4879292 13.0836106,3.0159292 16.5820885,3.0159292 C19.4960708,3.0159292 22.052177,4.77345133 23.2048142,7.26371681 C23.2228673,7.30300885 23.2534513,7.3159646 23.2850973,7.30746903 C24.151646,7.06938053 25.1910796,6.93069027 26.1946195,7.00460177 C26.292531,7.01182301 26.3301239,6.95681416 26.2984779,6.86761062" id="路径"></path>
            </g>
        </g>
    </g>
</svg>